<?xml version="1.0" encoding="utf-8"?>
<!-- Generator: Adobe Illustrator 15.1.0, SVG Export Plug-In . SVG Version: 6.00 Build 0)  -->
<!DOCTYPE svg PUBLIC "-//W3C//DTD SVG 1.1//EN" "http://www.w3.org/Graphics/SVG/1.1/DTD/svg11.dtd">
<svg version="1.1" id="Layer_6" xmlns="http://www.w3.org/2000/svg" xmlns:xlink="http://www.w3.org/1999/xlink" x="0px" y="0px"
	 width="283.46px" height="283.46px" viewBox="0 0 283.46 283.46" enable-background="new 0 0 283.46 283.46" xml:space="preserve">
<g>
	<path fill="#5ABAA7" d="M7.084,186.714c-0.829,0-1.5-0.672-1.5-1.5V98.247c0-0.829,0.671-1.5,1.5-1.5h198.767
		c0.278,0,0.551,0.077,0.787,0.223l70.525,43.483c0.443,0.273,0.713,0.756,0.713,1.277s-0.27,1.004-0.713,1.276l-70.525,43.484
		c-0.236,0.146-0.509,0.224-0.787,0.224H7.084z"/>
	<g>
		<path d="M205.851,98.247l70.525,43.483l-70.525,43.484H7.084V98.247H205.851 M205.851,95.247H7.084c-1.657,0-3,1.343-3,3v86.968
			c0,1.657,1.343,3,3,3h198.767c0.556,0,1.102-0.154,1.574-0.446l70.525-43.484c0.887-0.546,1.426-1.513,1.426-2.554
			s-0.539-2.007-1.426-2.554l-70.525-43.483C206.953,95.401,206.407,95.247,205.851,95.247L205.851,95.247z"/>
	</g>
</g>
</svg>
