<?xml version="1.0" encoding="utf-8"?>
<!-- Generator: Adobe Illustrator 15.1.0, SVG Export Plug-In . SVG Version: 6.00 Build 0)  -->
<!DOCTYPE svg PUBLIC "-//W3C//DTD SVG 1.1//EN" "http://www.w3.org/Graphics/SVG/1.1/DTD/svg11.dtd">
<svg version="1.1" id="Layer_6" xmlns="http://www.w3.org/2000/svg" xmlns:xlink="http://www.w3.org/1999/xlink" x="0px" y="0px"
	 width="283.46px" height="283.46px" viewBox="0 0 283.46 283.46" enable-background="new 0 0 283.46 283.46" xml:space="preserve">
<g>
	<path fill="#5ABAA7" d="M276.376,240.338c0,2.568-1.9,4.647-4.244,4.647H11.324c-2.34,0-4.239-1.482-4.239-3.314V100.994
		c0-1.832,1.899-3.698,4.239-4.17l260.809-57.339c2.344-0.558,4.244,1.068,4.244,3.637V240.338z"/>
	<path fill="none" stroke="#000000" stroke-width="3" stroke-miterlimit="10" d="M276.376,240.338c0,2.568-1.9,4.647-4.244,4.647
		H11.324c-2.34,0-4.239-1.482-4.239-3.314V100.994c0-1.832,1.899-3.698,4.239-4.17l260.809-57.339
		c2.344-0.558,4.244,1.068,4.244,3.637V240.338z"/>
</g>
</svg>
