<?xml version="1.0" encoding="utf-8"?>
<!-- Generator: Adobe Illustrator 15.1.0, SVG Export Plug-In . SVG Version: 6.00 Build 0)  -->
<!DOCTYPE svg PUBLIC "-//W3C//DTD SVG 1.1//EN" "http://www.w3.org/Graphics/SVG/1.1/DTD/svg11.dtd">
<svg version="1.1" id="Layer_6" xmlns="http://www.w3.org/2000/svg" xmlns:xlink="http://www.w3.org/1999/xlink" x="0px" y="0px"
	 width="283.46px" height="283.46px" viewBox="0 0 283.46 283.46" enable-background="new 0 0 283.46 283.46" xml:space="preserve">
<g>
	<path fill="#A3D977" stroke="#000000" stroke-width="3" stroke-miterlimit="10" d="M276.376,240.338c0,2.568-1.9,4.647-4.244,4.647
		H11.324c-2.34,0-4.239-2.079-4.239-4.647V43.122c0-2.568,1.899-4.646,4.239-4.646h260.809c2.344,0,4.244,2.078,4.244,4.646V240.338
		z"/>
	<path fill="none" stroke="#000000" stroke-width="3" stroke-miterlimit="10" d="M265.865,232.655c0,2.365-1.752,4.281-3.912,4.281
		H21.503c-2.157,0-3.909-1.916-3.909-4.281V50.833c0-2.369,1.752-4.285,3.909-4.285h240.45c2.16,0,3.912,1.916,3.912,4.285V232.655z
		"/>
</g>
</svg>
