<?xml version="1.0" encoding="utf-8"?>
<!-- Generator: Adobe Illustrator 15.1.0, SVG Export Plug-In . SVG Version: 6.00 Build 0)  -->
<!DOCTYPE svg PUBLIC "-//W3C//DTD SVG 1.1//EN" "http://www.w3.org/Graphics/SVG/1.1/DTD/svg11.dtd">
<svg version="1.1" id="Layer_6" xmlns="http://www.w3.org/2000/svg" xmlns:xlink="http://www.w3.org/1999/xlink" x="0px" y="0px"
	 width="283.46px" height="283.46px" viewBox="0 0 283.46 283.46" enable-background="new 0 0 283.46 283.46" xml:space="preserve">
<g>
	<g>
		<g>
			<path fill="#99D2F2" stroke="#000000" stroke-width="3" stroke-miterlimit="10" d="M141.729,246.515
				c-0.315,0-0.63-0.102-0.892-0.307L9.083,142.869c-0.349-0.275-0.553-0.694-0.553-1.138s0.205-0.863,0.553-1.137L140.84,37.253
				c0.262-0.205,0.577-0.308,0.892-0.308c0.315,0,0.63,0.102,0.892,0.308l131.754,103.339c0.351,0.273,0.554,0.693,0.554,1.137
				c0,0.444-0.203,0.862-0.554,1.138L142.621,246.208C142.359,246.413,142.045,246.515,141.729,246.515z"/>
			<path d="M141.731,38.39l131.755,103.339L141.729,245.07L9.975,141.731L141.731,38.39 M141.731,35.5
				c-0.63,0-1.26,0.205-1.784,0.617L8.19,139.458c-0.698,0.547-1.106,1.386-1.106,2.273c0,0.888,0.408,1.727,1.106,2.273
				l131.755,103.34c0.523,0.411,1.154,0.616,1.784,0.616s1.261-0.205,1.784-0.616L275.27,144.003
				c0.699-0.548,1.105-1.387,1.105-2.274c0-0.887-0.408-1.726-1.105-2.273L143.515,36.117C142.993,35.706,142.36,35.5,141.731,35.5
				L141.731,35.5z"/>
		</g>
	</g>
	<g>
		<g>
			<path fill="#99D2F2" stroke="#000000" stroke-width="3" stroke-miterlimit="10" d="M141.729,225.892
				c-0.253,0-0.506-0.082-0.716-0.246L35.19,142.645c-0.28-0.222-0.444-0.558-0.444-0.914s0.164-0.693,0.444-0.913l105.825-83.002
				c0.211-0.165,0.463-0.248,0.717-0.248c0.253,0,0.506,0.082,0.716,0.248l105.823,83c0.281,0.22,0.444,0.557,0.444,0.913
				c0,0.357-0.163,0.692-0.444,0.914l-105.825,83.003C142.235,225.81,141.984,225.892,141.729,225.892z"/>
			<path d="M141.731,58.729l105.824,83l-105.826,83.002L35.906,141.731L141.731,58.729 M141.731,56.408
				c-0.506,0-1.012,0.165-1.433,0.495L34.473,139.905c-0.561,0.439-0.889,1.113-0.889,1.826c0,0.713,0.328,1.387,0.889,1.826
				l105.824,83.001c0.42,0.33,0.927,0.494,1.433,0.494s1.013-0.164,1.434-0.494l105.824-83.002c0.562-0.439,0.888-1.113,0.888-1.827
				c0-0.712-0.327-1.386-0.888-1.826l-105.824-83C142.745,56.573,142.236,56.408,141.731,56.408L141.731,56.408z"/>
		</g>
	</g>
</g>
</svg>
