<?xml version="1.0" encoding="utf-8"?>
<!-- Generator: Adobe Illustrator 15.1.0, SVG Export Plug-In . SVG Version: 6.00 Build 0)  -->
<!DOCTYPE svg PUBLIC "-//W3C//DTD SVG 1.1//EN" "http://www.w3.org/Graphics/SVG/1.1/DTD/svg11.dtd">
<svg version="1.1" id="Layer_6" xmlns="http://www.w3.org/2000/svg" xmlns:xlink="http://www.w3.org/1999/xlink" x="0px" y="0px"
	 width="283.46px" height="283.46px" viewBox="0 0 283.46 283.46" enable-background="new 0 0 283.46 283.46" xml:space="preserve">
<g>
	<path fill="#A3D977" stroke="#000000" stroke-width="3" stroke-miterlimit="10" d="M276.752,234.355
		c0,2.41-1.624,4.362-3.629,4.362H50.111c-2.002,0-3.625-1.952-3.625-4.362V49.213c0-2.411,1.624-4.362,3.625-4.362h223.013
		c2.005,0,3.629,1.951,3.629,4.362V234.355z"/>
	<path fill="#A3D977" stroke="#000000" stroke-width="3" stroke-miterlimit="10" d="M85.508,120.873
		c0,2.501-2.029,4.531-4.532,4.531H11.993c-2.504,0-4.532-2.029-4.532-4.531V85.136c0-2.501,2.028-4.531,4.532-4.531h68.982
		c2.503,0,4.532,2.029,4.532,4.531V120.873z"/>
	<path fill="#A3D977" stroke="#000000" stroke-width="3" stroke-miterlimit="10" d="M85.508,206.768
		c0,2.502-2.029,4.532-4.532,4.532H11.993c-2.504,0-4.532-2.03-4.532-4.532v-35.736c0-2.5,2.028-4.53,4.532-4.53h68.982
		c2.503,0,4.532,2.03,4.532,4.53V206.768z"/>
</g>
</svg>
