<?xml version="1.0" encoding="utf-8"?>
<!-- Generator: Adobe Illustrator 15.1.0, SVG Export Plug-In . SVG Version: 6.00 Build 0)  -->
<!DOCTYPE svg PUBLIC "-//W3C//DTD SVG 1.1//EN" "http://www.w3.org/Graphics/SVG/1.1/DTD/svg11.dtd">
<svg version="1.1" id="Layer_6" xmlns="http://www.w3.org/2000/svg" xmlns:xlink="http://www.w3.org/1999/xlink" x="0px" y="0px"
	 width="283.46px" height="283.46px" viewBox="0 0 283.46 283.46" enable-background="new 0 0 283.46 283.46" xml:space="preserve">
<g>
	<path fill="#A3D977" stroke="#000000" stroke-width="3" stroke-miterlimit="10" d="M244.697,38.023V245.48l-205.935-0.028
		c-13.228,0-31.678-39.463-31.678-103.726c0-64.27,18.45-103.731,31.678-103.731L244.697,38.023z"/>
	<line fill="#99D2F2" x1="38.762" y1="245.461" x2="38.762" y2="37.981"/>
	<g>
		<g>
			<path fill="#A3D977" d="M244.695,246.961c-15.692,0-33.178-43.22-33.178-105.238c0-62.021,17.485-105.242,33.178-105.242
				c15.694,0,33.182,43.221,33.182,105.242C277.876,203.742,260.389,246.961,244.695,246.961z"/>
			<path d="M244.695,37.981c13.23,0,31.682,39.47,31.682,103.742c0,64.271-18.451,103.738-31.682,103.738
				c-13.229,0-31.678-39.468-31.678-103.738C213.017,77.451,231.466,37.981,244.695,37.981 M244.695,34.981
				c-8.395,0-17.007,10.854-23.631,29.778c-7.124,20.352-11.047,47.685-11.047,76.964c0,29.278,3.923,56.61,11.047,76.962
				c6.624,18.923,15.236,29.776,23.631,29.776s17.009-10.854,23.634-29.776c7.124-20.351,11.048-47.684,11.048-76.962
				c0-29.28-3.924-56.613-11.048-76.964C261.704,45.834,253.089,34.981,244.695,34.981L244.695,34.981z"/>
		</g>
	</g>
</g>
</svg>
