<?xml version="1.0" encoding="utf-8"?>
<!-- Generator: Adobe Illustrator 15.1.0, SVG Export Plug-In . SVG Version: 6.00 Build 0)  -->
<!DOCTYPE svg PUBLIC "-//W3C//DTD SVG 1.1//EN" "http://www.w3.org/Graphics/SVG/1.1/DTD/svg11.dtd">
<svg version="1.1" id="Layer_6" xmlns="http://www.w3.org/2000/svg" xmlns:xlink="http://www.w3.org/1999/xlink" x="0px" y="0px"
	 width="283.46px" height="283.46px" viewBox="0 0 283.46 283.46" enable-background="new 0 0 283.46 283.46" xml:space="preserve">
<g>
	<path fill="#FF8F80" d="M272.132,38.475H11.324c-2.34,0-3.813,2.079-3.287,4.647L48.45,240.338
		c0.526,2.568,2.282,4.647,3.919,4.647h182.566c1.641,0,3.358-2.079,3.837-4.647l36.739-197.217
		C275.99,40.553,274.476,38.475,272.132,38.475z"/>
	<path fill="none" stroke="#000000" stroke-width="3" stroke-miterlimit="10" d="M272.132,38.475H11.324
		c-2.34,0-3.813,2.079-3.287,4.647L48.45,240.338c0.526,2.568,2.282,4.647,3.919,4.647h182.566c1.641,0,3.358-2.079,3.837-4.647
		l36.739-197.217C275.99,40.553,274.476,38.475,272.132,38.475z"/>
</g>
</svg>
