<?xml version="1.0" encoding="utf-8"?>
<!-- Generator: Adobe Illustrator 15.1.0, SVG Export Plug-In . SVG Version: 6.00 Build 0)  -->
<!DOCTYPE svg PUBLIC "-//W3C//DTD SVG 1.1//EN" "http://www.w3.org/Graphics/SVG/1.1/DTD/svg11.dtd">
<svg version="1.1" id="Layer_6" xmlns="http://www.w3.org/2000/svg" xmlns:xlink="http://www.w3.org/1999/xlink" x="0px" y="0px"
	 width="283.46px" height="283.46px" viewBox="0 0 283.46 283.46" enable-background="new 0 0 283.46 283.46" xml:space="preserve">
<g>
	<path fill="#99D2F2" d="M7.084,186.714c-0.829,0-1.5-0.672-1.5-1.5V98.247c0-0.829,0.671-1.5,1.5-1.5h269.292
		c0.671,0,1.26,0.445,1.443,1.091c0.183,0.646-0.085,1.334-0.656,1.686l-68.454,42.204l68.454,42.21
		c0.571,0.352,0.839,1.04,0.656,1.686c-0.184,0.646-0.772,1.091-1.443,1.091H7.084z"/>
	<path d="M276.376,98.247h0.005 M276.376,98.247l-70.525,43.481l70.525,43.487h-70.525H77.609H7.084V98.247h70.524h128.242H276.376
		 M276.381,95.247h-0.005h-70.525H77.609H7.084c-1.657,0-3,1.343-3,3v86.968c0,1.657,1.343,3,3,3h70.524h128.242h70.525
		c1.342,0,2.521-0.891,2.887-2.182c0.365-1.291-0.17-2.668-1.313-3.372l-66.384-40.933l66.324-40.891
		c0.89-0.521,1.488-1.486,1.488-2.59C279.379,96.59,278.039,95.247,276.381,95.247L276.381,95.247z"/>
</g>
</svg>
