<?xml version="1.0" encoding="utf-8"?>
<!-- Generator: Adobe Illustrator 15.1.0, SVG Export Plug-In . SVG Version: 6.00 Build 0)  -->
<!DOCTYPE svg PUBLIC "-//W3C//DTD SVG 1.1//EN" "http://www.w3.org/Graphics/SVG/1.1/DTD/svg11.dtd">
<svg version="1.1" id="Layer_6" xmlns="http://www.w3.org/2000/svg" xmlns:xlink="http://www.w3.org/1999/xlink" x="0px" y="0px"
	 width="283.46px" height="283.46px" viewBox="0 0 283.46 283.46" enable-background="new 0 0 283.46 283.46" xml:space="preserve">
<g>
	<path fill="#F9DC5F" stroke="#000000" stroke-width="3" stroke-miterlimit="10" d="M276.305,240.197
		c0,2.568-1.899,4.646-4.243,4.646H11.253c-2.34,0-4.239-2.077-4.239-4.646V42.978c0-2.566,1.899-4.647,4.239-4.647h260.809
		c2.344,0,4.243,2.081,4.243,4.647V240.197z"/>
	<path fill="none" stroke="#000000" stroke-width="3" stroke-miterlimit="10" d="M265.793,232.511c0,2.366-1.751,4.282-3.912,4.282
		H21.432c-2.157,0-3.909-1.916-3.909-4.282V50.688c0-2.367,1.751-4.285,3.909-4.285h240.45c2.161,0,3.912,1.918,3.912,4.285V232.511
		z"/>
</g>
</svg>
