<?xml version="1.0" encoding="utf-8"?>
<!-- Generator: Adobe Illustrator 15.1.0, SVG Export Plug-In . SVG Version: 6.00 Build 0)  -->
<!DOCTYPE svg PUBLIC "-//W3C//DTD SVG 1.1//EN" "http://www.w3.org/Graphics/SVG/1.1/DTD/svg11.dtd">
<svg version="1.1" id="Layer_6" xmlns="http://www.w3.org/2000/svg" xmlns:xlink="http://www.w3.org/1999/xlink" x="0px" y="0px"
	 width="283.46px" height="283.46px" viewBox="0 0 283.46 283.46" enable-background="new 0 0 283.46 283.46" xml:space="preserve">
<g>
	<path fill="#99D2F2" d="M12.312,109.194c-1.277,0-2.168,0.717-2.168,1.361v62.351c0,0.645,0.891,1.361,2.168,1.361h47.022v-65.073
		H12.312z"/>
	<rect x="62.394" y="109.194" fill="#99D2F2" width="213.981" height="65.073"/>
	<path d="M62.394,175.797h-3.06H12.312c-2.041,0-3.697-1.295-3.697-2.892v-62.351c0-1.597,1.656-2.892,3.697-2.892h47.022h3.06
		h213.981v-1.529H12.312c-2.882,0-5.228,1.982-5.228,4.421v62.351c0,2.438,2.346,4.421,5.228,4.421h264.063v-1.529H62.394z"/>
	<path d="M12.312,174.267c-1.277,0-2.168-0.717-2.168-1.361v-62.351c0-0.645,0.891-1.361,2.168-1.361h47.022v-1.53H12.312
		c-2.041,0-3.697,1.295-3.697,2.892v62.351c0,1.597,1.656,2.892,3.697,2.892h47.022v-1.53H12.312z"/>
	<rect x="62.394" y="174.267" width="213.981" height="1.53"/>
	<rect x="62.394" y="107.664" width="213.981" height="1.53"/>
	<rect x="59.334" y="109.194" width="3.06" height="65.073"/>
	<rect x="59.334" y="107.664" width="3.06" height="1.53"/>
	<rect x="59.334" y="174.267" width="3.06" height="1.53"/>
</g>
</svg>
