<?xml version="1.0" encoding="utf-8"?>
<!-- Generator: Adobe Illustrator 15.1.0, SVG Export Plug-In . SVG Version: 6.00 Build 0)  -->
<!DOCTYPE svg PUBLIC "-//W3C//DTD SVG 1.1//EN" "http://www.w3.org/Graphics/SVG/1.1/DTD/svg11.dtd">
<svg version="1.1" id="Layer_6" xmlns="http://www.w3.org/2000/svg" xmlns:xlink="http://www.w3.org/1999/xlink" x="0px" y="0px"
	 width="283.46px" height="283.46px" viewBox="0 0 283.46 283.46" enable-background="new 0 0 283.46 283.46" xml:space="preserve">
<g>
	<path fill="#5ABAA7" stroke="#000000" stroke-width="3" stroke-miterlimit="10" d="M276.323,62.78H7.084L7.12,220.681
		c0,10.143,51.217,24.289,134.617,24.289c83.407,0,134.622-14.146,134.622-24.289L276.323,62.78z"/>
	<line fill="#5ABAA7" x1="7.108" y1="220.681" x2="276.375" y2="220.681"/>
	<g>
		<g>
			<path fill="#5ABAA7" d="M141.742,88.572C60.31,88.572,5.608,75.237,5.608,62.783c0-12.456,54.702-25.792,136.134-25.792
				s136.134,13.336,136.134,25.792C277.875,75.237,223.173,88.572,141.742,88.572z"/>
			<path d="M141.742,38.491c83.412,0,134.634,14.146,134.634,24.292c0,10.143-51.222,24.289-134.634,24.289
				c-83.414,0-134.634-14.146-134.634-24.289C7.108,52.637,58.328,38.491,141.742,38.491 M141.742,35.491
				c-37.771,0-73.003,2.984-99.205,8.404c-11.411,2.36-20.87,5.153-27.356,8.078C7.73,55.332,4.108,58.868,4.108,62.783
				c0,3.914,3.622,7.45,11.073,10.809c6.486,2.924,15.946,5.717,27.356,8.077c26.203,5.419,61.435,8.403,99.205,8.403
				c37.77,0,73.001-2.984,99.204-8.403c11.41-2.359,20.87-5.152,27.356-8.077c7.451-3.359,11.073-6.895,11.073-10.809
				c0-3.915-3.622-7.451-11.073-10.811c-6.486-2.925-15.946-5.718-27.356-8.078C214.744,38.475,179.512,35.491,141.742,35.491
				L141.742,35.491z"/>
		</g>
	</g>
</g>
</svg>
