<?xml version="1.0" encoding="utf-8"?>
<!-- Generator: Adobe Illustrator 15.1.0, SVG Export Plug-In . SVG Version: 6.00 Build 0)  -->
<!DOCTYPE svg PUBLIC "-//W3C//DTD SVG 1.1//EN" "http://www.w3.org/Graphics/SVG/1.1/DTD/svg11.dtd">
<svg version="1.1" id="Layer_6" xmlns="http://www.w3.org/2000/svg" xmlns:xlink="http://www.w3.org/1999/xlink" x="0px" y="0px"
	 width="283.46px" height="283.46px" viewBox="0 0 283.46 283.46" enable-background="new 0 0 283.46 283.46" xml:space="preserve">
<g>
	<path fill="#99D2F2" d="M141.73,259.838c-0.536,0-1.031-0.286-1.299-0.75L5.786,25.872c-0.268-0.464-0.268-1.036,0-1.5
		c0.268-0.464,0.763-0.75,1.299-0.75h269.291c0.536,0,1.031,0.286,1.299,0.75c0.269,0.464,0.269,1.036,0,1.5L143.029,259.088
		C142.761,259.552,142.266,259.838,141.73,259.838z"/>
	<path d="M276.375,25.122h0.005 M276.375,25.122L141.73,258.338L7.084,25.122H276.375 M276.38,22.122h-0.005H7.084
		c-1.072,0-2.062,0.572-2.598,1.5c-0.536,0.928-0.536,2.072,0,3l134.646,233.216c0.536,0.928,1.526,1.5,2.598,1.5
		c1.072,0,2.063-0.572,2.598-1.5L278.92,26.715c0.29-0.461,0.458-1.008,0.458-1.593C279.378,23.465,278.038,22.122,276.38,22.122
		L276.38,22.122z"/>
</g>
</svg>
