<?xml version="1.0" encoding="utf-8"?>
<!-- Generator: Adobe Illustrator 15.1.0, SVG Export Plug-In . SVG Version: 6.00 Build 0)  -->
<!DOCTYPE svg PUBLIC "-//W3C//DTD SVG 1.1//EN" "http://www.w3.org/Graphics/SVG/1.1/DTD/svg11.dtd">
<svg version="1.1" id="Layer_6" xmlns="http://www.w3.org/2000/svg" xmlns:xlink="http://www.w3.org/1999/xlink" x="0px" y="0px"
	 width="283.46px" height="283.46px" viewBox="0 0 283.46 283.46" enable-background="new 0 0 283.46 283.46" xml:space="preserve">
<g>
	<g>
		<path fill="#F9DC5F" stroke="#000000" stroke-width="3" stroke-miterlimit="10" d="M141.73,185.992
			c-0.133,0-0.266-0.042-0.376-0.129L85.7,142.21c-0.147-0.115-0.234-0.293-0.234-0.48s0.086-0.364,0.234-0.479l55.655-43.652
			c0.111-0.087,0.244-0.13,0.377-0.13c0.133,0,0.266,0.043,0.377,0.13l55.654,43.651c0.147,0.115,0.233,0.292,0.233,0.479
			s-0.086,0.364-0.233,0.481l-55.655,43.652C141.996,185.95,141.864,185.992,141.73,185.992z"/>
		<path d="M141.731,98.079l55.654,43.65l-55.655,43.652L86.076,141.73L141.731,98.079 M141.731,96.858
			c-0.266,0-0.532,0.086-0.753,0.261L85.322,140.77c-0.295,0.231-0.467,0.586-0.467,0.96c0,0.375,0.172,0.73,0.467,0.96
			l55.654,43.652c0.221,0.174,0.487,0.261,0.753,0.261s0.533-0.087,0.754-0.261l55.654-43.652c0.296-0.231,0.467-0.586,0.467-0.961
			c0-0.374-0.172-0.729-0.467-0.96l-55.654-43.65C142.264,96.945,141.997,96.858,141.731,96.858L141.731,96.858z"/>
	</g>
</g>
</svg>
