<?xml version="1.0" encoding="utf-8"?>
<!-- Generator: Adobe Illustrator 15.1.0, SVG Export Plug-In . SVG Version: 6.00 Build 0)  -->
<!DOCTYPE svg PUBLIC "-//W3C//DTD SVG 1.1//EN" "http://www.w3.org/Graphics/SVG/1.1/DTD/svg11.dtd">
<svg version="1.1" xmlns="http://www.w3.org/2000/svg" xmlns:xlink="http://www.w3.org/1999/xlink" x="0px" y="0px"
	 width="283.46px" height="283.46px" viewBox="0 0 283.46 283.46" enable-background="new 0 0 283.46 283.46" xml:space="preserve">
<g id="Layer_6">
	<g>
		<g>
			<path fill="#99D2F2" d="M11.324,246.486c-3.165,0-5.739-2.758-5.739-6.147V43.122c0-3.39,2.575-6.147,5.739-6.147h232.609
				c0.397,0,0.779,0.158,1.061,0.439l32.442,32.443c0.281,0.281,0.439,0.663,0.439,1.061v169.421c0,3.39-2.576,6.147-5.742,6.147
				H11.324z"/>
			<path d="M243.933,38.475l32.442,32.443v169.421c0,2.568-1.899,4.647-4.242,4.647H11.324c-2.34,0-4.239-2.079-4.239-4.647V43.122
				c0-2.566,1.899-4.647,4.239-4.647H243.933 M243.933,35.475H11.324c-3.992,0-7.239,3.43-7.239,7.647v197.217
				c0,4.217,3.248,7.647,7.239,7.647h260.81c3.993,0,7.242-3.431,7.242-7.647V70.917c0-0.795-0.316-1.559-0.879-2.121
				l-32.442-32.443C245.492,35.791,244.729,35.475,243.933,35.475L243.933,35.475z"/>
		</g>
		<g>
			<path fill="#FFFFFF" d="M248.176,72.414c-3.167,0-5.743-2.757-5.743-6.146V38.475c0-0.606,0.365-1.154,0.926-1.386
				c0.186-0.077,0.381-0.114,0.574-0.114c0.39,0,0.773,0.152,1.061,0.439l32.442,32.439c0.429,0.429,0.558,1.074,0.325,1.635
				s-0.779,0.926-1.386,0.926H248.176z"/>
			<path d="M243.933,38.475l32.442,32.439h-28.199c-2.344,0-4.243-2.08-4.243-4.646V38.475 M243.932,35.475
				c-0.386,0-0.776,0.075-1.147,0.229c-1.121,0.464-1.852,1.558-1.852,2.771v27.792c0,4.216,3.249,7.646,7.243,7.646h28.199
				c1.214,0,2.308-0.731,2.771-1.852c0.465-1.121,0.208-2.412-0.65-3.27l-32.442-32.439
				C245.48,35.779,244.713,35.475,243.932,35.475L243.932,35.475z"/>
		</g>
	</g>
</g>
<g id="Layer_2" display="none">
	<path display="inline" fill="#FFFFFF" d="M-253.77-186.247h-40.119c-1.061,0-1.921-0.66-1.921-1.473v-34.367l3.84,3.259
		l34.911,29.636l3.288,2.791v0.154H-253.77z"/>
</g>
</svg>
