<?xml version="1.0" encoding="utf-8"?>
<!-- Generator: Adobe Illustrator 15.1.0, SVG Export Plug-In . SVG Version: 6.00 Build 0)  -->
<!DOCTYPE svg PUBLIC "-//W3C//DTD SVG 1.1//EN" "http://www.w3.org/Graphics/SVG/1.1/DTD/svg11.dtd">
<svg version="1.1" xmlns="http://www.w3.org/2000/svg" xmlns:xlink="http://www.w3.org/1999/xlink" x="0px" y="0px"
	 width="3401.58px" height="4009.782px" viewBox="0 0 3401.58 4009.782" enable-background="new 0 0 3401.58 4009.782"
	 xml:space="preserve">
<g id="Layer_14">
	<rect x="-2.956" fill="#FFFFFF" width="3407.371" height="257.923"/>
	<rect x="2836.625" y="2494.433" fill="#FFFFFF" width="564.952" height="1515.347"/>
</g>
<g id="Layer_8">
	<polygon fill="#F8FBEE" points="0.003,255.292 0.003,2504.836 0.003,4009.78 1132.321,4009.78 1132.321,2504.836 
		1703.098,2504.836 1703.098,255.292 	"/>
</g>
<g id="Layer_9">
	<rect x="1132.321" y="2504.836" fill="#EAE2F0" width="1132.318" height="1504.944"/>
	<rect x="1698.48" y="260.55" fill="#EAE2F0" width="566.159" height="2244.286"/>
</g>
<g id="Layer_10">
	<rect x="2269.255" y="260.55" fill="#ECF8FE" width="561.274" height="2624.459"/>
</g>
<g id="Layer_11">
	<rect x="2269.255" y="2885.01" fill="#E3F2E9" width="566.161" height="1124.771"/>
	<rect x="2830.529" y="260.55" fill="#E3F2E9" width="571.048" height="1494.435"/>
</g>
<g id="Layer_12">
	<rect x="2830.529" y="1754.985" fill="#FEDCC2" width="571.048" height="749.851"/>
</g>
<g id="Layer_1">
	<g>
		<rect x="0.003" y="255.292" stroke="#000000" stroke-width="2" stroke-miterlimit="10" width="4.614" height="3754.488"/>
		<rect x="566.164" y="260.55" stroke="#000000" stroke-width="2" stroke-miterlimit="10" width="4.613" height="3749.23"/>
		<rect x="1132.321" y="260.55" stroke="#000000" stroke-width="2" stroke-miterlimit="10" width="4.615" height="3749.23"/>
		<rect x="1698.482" y="260.55" stroke="#000000" stroke-width="2" stroke-miterlimit="10" width="4.612" height="3749.23"/>
		<rect x="2264.64" y="260.55" stroke="#000000" stroke-width="2" stroke-miterlimit="10" width="4.615" height="3749.23"/>
		<rect x="2830.798" y="260.55" stroke="#000000" stroke-width="2" stroke-miterlimit="10" width="4.618" height="3749.23"/>
		<rect x="3396.961" y="260.55" stroke="#000000" stroke-width="2" stroke-miterlimit="10" width="4.616" height="3749.23"/>
		<rect x="4.617" y="255.292" stroke="#000000" stroke-width="2" stroke-miterlimit="10" width="3396.96" height="5.261"/>
		<rect x="4.617" y="630.217" stroke="#000000" stroke-width="2" stroke-miterlimit="10" width="3396.96" height="5.256"/>
		<rect x="4.617" y="1005.14" stroke="#000000" stroke-width="2" stroke-miterlimit="10" width="3396.96" height="5.258"/>
		<rect x="4.617" y="1380.061" stroke="#000000" stroke-width="2" stroke-miterlimit="10" width="3396.96" height="5.258"/>
		<rect x="4.617" y="1754.985" stroke="#000000" stroke-width="2" stroke-miterlimit="10" width="3396.96" height="5.256"/>
		<rect x="4.617" y="2129.909" stroke="#000000" stroke-width="2" stroke-miterlimit="10" width="3396.96" height="5.255"/>
		<rect x="4.617" y="2504.836" stroke="#000000" stroke-width="2" stroke-miterlimit="10" width="3396.96" height="5.253"/>
		<rect x="4.617" y="2879.753" stroke="#000000" stroke-width="2" stroke-miterlimit="10" width="3396.96" height="5.257"/>
		<rect x="4.617" y="3254.675" stroke="#000000" stroke-width="2" stroke-miterlimit="10" width="3396.96" height="5.261"/>
		<rect x="4.617" y="3629.597" stroke="#000000" stroke-width="2" stroke-miterlimit="10" width="3396.96" height="5.263"/>
		<rect x="4.617" y="4004.521" stroke="#000000" stroke-width="2" stroke-miterlimit="10" width="3396.96" height="5.259"/>
	</g>
</g>
<g id="ERD">
	<g>
		<g>
			<path fill="#99D1F2" stroke="#010101" stroke-width="3" stroke-miterlimit="10" d="M3252.042,2414.214
				c0,2.567-1.898,4.646-4.242,4.646h-260.809c-2.34,0-4.238-2.078-4.238-4.646v-197.219c0-2.565,1.898-4.646,4.238-4.646h260.811
				c2.343,0,4.242,2.081,4.242,4.646v197.219H3252.042z"/>
		</g>
		
			<line fill="none" stroke="#010101" stroke-width="3" stroke-miterlimit="10" x1="2982.751" y1="2274.363" x2="3252.042" y2="2274.363"/>
		
			<line fill="none" stroke="#010101" stroke-width="3" stroke-miterlimit="10" x1="3079.208" y1="2274.363" x2="3079.208" y2="2418.86"/>
		
			<line fill="none" stroke="#010101" stroke-width="3" stroke-miterlimit="10" x1="3165.499" y1="2274.363" x2="3165.499" y2="2418.86"/>
	</g>
</g>
<g id="BPMN">
	<circle fill="#A5D178" stroke="#010101" stroke-width="3" stroke-miterlimit="10" cx="3116.052" cy="430.008" r="44.873"/>
	<g>
		<circle fill="#99D1F2" stroke="#010101" stroke-width="3" stroke-miterlimit="10" cx="3117.397" cy="807.316" r="44.873"/>
		<circle fill="none" stroke="#010101" stroke-width="3" stroke-miterlimit="10" cx="3117.396" cy="807.316" r="38.046"/>
	</g>
	<circle fill="#F58E81" stroke="#010101" stroke-width="3" stroke-miterlimit="10" cx="3116.053" cy="1171.625" r="44.873"/>
	<g>
		<g>
			<path fill="#F9DC60" stroke="#010101" stroke-width="3" stroke-miterlimit="10" d="M3117.397,1622.428
				c-0.133,0-0.266-0.042-0.376-0.129l-55.653-43.653c-0.148-0.115-0.234-0.293-0.234-0.48s0.086-0.364,0.234-0.479l55.654-43.652
				c0.111-0.087,0.244-0.13,0.377-0.13s0.266,0.043,0.377,0.13l55.654,43.651c0.146,0.115,0.232,0.292,0.232,0.479
				s-0.086,0.364-0.232,0.481l-55.655,43.652C3117.663,1622.386,3117.532,1622.428,3117.397,1622.428z"/>
			<path fill="#010101" d="M3117.398,1534.516l55.653,43.65l-55.654,43.651l-55.654-43.65L3117.398,1534.516 M3117.398,1533.294
				c-0.267,0-0.532,0.086-0.753,0.261l-55.656,43.651c-0.295,0.231-0.467,0.586-0.467,0.96c0,0.375,0.172,0.73,0.467,0.96
				l55.654,43.652c0.221,0.174,0.486,0.261,0.753,0.261s0.532-0.087,0.754-0.261l55.653-43.652c0.297-0.231,0.468-0.586,0.468-0.961
				c0-0.374-0.172-0.729-0.468-0.96l-55.653-43.65C3117.932,1533.381,3117.665,1533.294,3117.398,1533.294L3117.398,1533.294z"/>
		</g>
	</g>
	<path fill="#5CBAA7" stroke="#010101" stroke-width="3" stroke-miterlimit="10" d="M2686.981,3497.817
		c0,2.568-1.898,4.646-4.242,4.646h-260.809c-2.34,0-4.239-2.077-4.239-4.646v-197.217c0-2.566,1.899-4.647,4.239-4.647h260.809
		c2.344,0,4.242,2.081,4.242,4.647V3497.817z"/>
	<g>
		<path fill="#F9DC60" stroke="#010101" stroke-width="3" stroke-miterlimit="10" d="M2683.738,3890.457
			c0,2.568-1.898,4.646-4.242,4.646h-260.809c-2.34,0-4.239-2.077-4.239-4.646v-197.219c0-2.566,1.899-4.646,4.239-4.646h260.809
			c2.344,0,4.242,2.08,4.242,4.646V3890.457z"/>
		<path fill="none" stroke="#010101" stroke-width="3" stroke-miterlimit="10" d="M2673.227,3882.771
			c0,2.365-1.75,4.281-3.912,4.281h-240.448c-2.157,0-3.909-1.916-3.909-4.281v-181.823c0-2.367,1.751-4.285,3.909-4.285h240.45
			c2.16,0,3.912,1.918,3.912,4.285v181.823H2673.227z"/>
	</g>
	<rect x="2271.563" y="3932.934" fill="none" width="561.547" height="57.594"/>
	<text transform="matrix(1 0 0 1 2425.1621 3970.1816)" font-family="'Ubuntu-Regular'" font-size="48">Transaction</text>
</g>
<g id="Data_Flow">
	<path fill="#A5D178" stroke="#010101" stroke-width="3" stroke-miterlimit="10" d="M2683.737,905.924
		c0,2.567-1.898,4.647-4.242,4.647h-260.811c-2.34,0-4.238-2.08-4.238-4.647V708.707c0-2.568,1.898-4.647,4.238-4.647h260.811
		c2.344,0,4.242,2.079,4.242,4.647V905.924z"/>
	<circle fill="#F58E81" stroke="#010101" stroke-width="3" stroke-miterlimit="10" cx="2547.56" cy="1171.625" r="67.323"/>
	<g>
		<path fill="#F58E81" stroke="#010101" stroke-width="3" stroke-miterlimit="10" d="M2637.682,1642.462
			c0,1.674-1.237,3.027-2.767,3.027h-170.047c-1.524,0-2.764-1.354-2.764-3.027v-128.589c0-1.672,1.238-3.029,2.764-3.029h170.047
			c1.529,0,2.768,1.357,2.768,3.029L2637.682,1642.462L2637.682,1642.462z"/>
		
			<line fill="none" stroke="#010101" stroke-width="3" stroke-miterlimit="10" x1="2462.103" y1="1578.167" x2="2637.68" y2="1578.167"/>
	</g>
	<g>
		<path fill="#5CBAA7" d="M2420.477,1902.542c-1.277,0-2.168,0.717-2.168,1.361v62.351c0,0.646,0.891,1.361,2.168,1.361h264.063
			v-65.073H2420.477z"/>
		<path fill="#010101" d="M2420.477,1969.144c-2.041,0-3.697-1.295-3.697-2.892v-62.351c0-1.597,1.656-2.892,3.697-2.892h264.063
			v-1.529h-264.063c-2.882,0-5.229,1.981-5.229,4.421v62.351c0,2.438,2.347,4.421,5.229,4.421h264.063v-1.529H2420.477z"/>
		<path fill="#010101" d="M2416.779,1903.903v62.351c0,1.598,1.656,2.893,3.697,2.893h264.063v-1.53h-264.063
			c-1.277,0-2.168-0.717-2.168-1.361v-62.351c0-0.645,0.891-1.361,2.168-1.361h264.063v-1.53h-264.063
			C2418.436,1901.012,2416.779,1902.306,2416.779,1903.903z"/>
	</g>
	<g>
		<path fill="#99D1F2" d="M2422.007,2283.067c-1.277,0-2.168,0.717-2.168,1.361v62.351c0,0.646,0.891,1.361,2.168,1.361h47.021
			v-65.073H2422.007z"/>
		<rect x="2472.089" y="2283.067" fill="#99D1F2" width="213.98" height="65.073"/>
		<path fill="#010101" d="M2472.089,2349.669h-3.061h-47.021c-2.041,0-3.697-1.295-3.697-2.892v-62.351
			c0-1.597,1.656-2.892,3.697-2.892h47.021h3.061h213.98v-1.529h-264.063c-2.882,0-5.229,1.981-5.229,4.421v62.351
			c0,2.438,2.347,4.421,5.229,4.421h264.063v-1.529H2472.089z"/>
		<path fill="#010101" d="M2422.007,2348.14c-1.277,0-2.168-0.717-2.168-1.361v-62.351c0-0.645,0.891-1.361,2.168-1.361h47.021
			v-1.53h-47.021c-2.041,0-3.697,1.295-3.697,2.892v62.351c0,1.597,1.656,2.893,3.697,2.893h47.021v-1.53h-47.021V2348.14z"/>
		<rect x="2472.089" y="2348.14" fill="#010101" width="213.98" height="1.529"/>
		<rect x="2472.089" y="2281.537" fill="#010101" width="213.98" height="1.53"/>
		<rect x="2469.028" y="2283.067" fill="#010101" width="3.061" height="65.073"/>
		<rect x="2469.028" y="2281.537" fill="#010101" width="3.061" height="1.53"/>
		<rect x="2469.028" y="2348.14" fill="#010101" width="3.061" height="1.529"/>
	</g>
	<g>
		<g>
			<g>
				<rect x="2419.189" y="2625.663" fill="#A5D178" width="266.293" height="133.396"/>
				<path fill="#010101" d="M2683.982,2627.163v130.396h-263.293v-130.396H2683.982 M2686.982,2624.163h-269.293v136.396h269.293
					V2624.163L2686.982,2624.163z"/>
			</g>
		</g>
		<rect x="2417.689" y="2627.417" fill="#A5D178" width="269.293" height="129.733"/>
	</g>
</g>
<g id="UML">
	<path fill="#F58E81" stroke="#010101" stroke-width="3" stroke-miterlimit="10" d="M1564.285,3148.888
		c0,2.567-1.9,4.646-4.244,4.646h-260.809c-2.34,0-4.238-2.078-4.238-4.646v-197.219c0-2.565,1.898-4.646,4.238-4.646h260.809
		c2.345,0,4.244,2.081,4.244,4.646V3148.888L1564.285,3148.888z"/>
	<g>
		<path fill="#A5D178" stroke="#010101" stroke-width="3" stroke-miterlimit="10" d="M1556.969,3497.805
			c0,2.568-1.9,4.647-4.244,4.647h-260.809c-2.34,0-4.238-2.079-4.238-4.647V3300.59c0-2.568,1.898-4.646,4.238-4.646h260.809
			c2.345,0,4.244,2.078,4.244,4.646V3497.805L1556.969,3497.805z"/>
		<path fill="none" stroke="#010101" stroke-width="3" stroke-miterlimit="10" d="M1546.458,3490.122
			c0,2.365-1.752,4.281-3.912,4.281h-240.449c-2.158,0-3.91-1.916-3.91-4.281v-181.821c0-2.369,1.752-4.285,3.91-4.285h240.449
			c2.16,0,3.912,1.916,3.912,4.285V3490.122z"/>
	</g>
	
		<ellipse fill="#5CBAA7" stroke="#010101" stroke-width="3" stroke-miterlimit="10" cx="1422.324" cy="3791.848" rx="134.646" ry="100.142"/>
	<g>
		<path fill="#99D1F2" stroke="#010101" stroke-width="3" stroke-miterlimit="10" d="M2116.207,430.004
			c0,54.605-60.287,98.88-134.646,98.88c-74.369,0-134.646-44.274-134.646-98.88c0-54.606,60.277-98.88,134.646-98.88
			C2055.92,331.125,2116.207,375.399,2116.207,430.004z"/>
		<path fill="none" stroke="#010101" stroke-width="3" stroke-miterlimit="10" d="M2095.723,430.004
			c0,46.3-51.117,83.841-114.166,83.841s-114.16-37.541-114.16-83.841c0-46.297,51.111-83.834,114.16-83.834
			S2095.723,383.708,2095.723,430.004z"/>
	</g>
	<g>
		<g>
			<path fill="#F9DC60" stroke="#010101" stroke-width="3" stroke-miterlimit="10" d="M1981.56,915.1
				c-0.315,0-0.63-0.102-0.892-0.307l-131.754-103.34c-0.35-0.274-0.553-0.693-0.553-1.138c0-0.444,0.204-0.863,0.553-1.137
				l131.756-103.341c0.263-0.205,0.578-0.308,0.893-0.308s0.631,0.102,0.893,0.308l131.754,103.339
				c0.351,0.272,0.554,0.693,0.554,1.137s-0.203,0.862-0.554,1.138l-131.758,103.342C1982.189,914.998,1981.875,915.1,1981.56,915.1
				z"/>
			<path fill="#010101" d="M1981.562,706.975l131.755,103.339L1981.56,913.654l-131.754-103.339L1981.562,706.975 M1981.562,704.084
				c-0.63,0-1.261,0.205-1.784,0.617l-131.757,103.341c-0.698,0.547-1.106,1.386-1.106,2.273c0,0.888,0.408,1.728,1.106,2.272
				l131.755,103.341c0.523,0.411,1.154,0.616,1.784,0.616s1.261-0.205,1.784-0.616l131.757-103.341
				c0.698-0.549,1.104-1.388,1.104-2.274s-0.408-1.726-1.104-2.273l-131.755-103.339
				C1982.824,704.291,1982.19,704.084,1981.562,704.084L1981.562,704.084z"/>
		</g>
	</g>
	<g>
		<g>
			<g>
				<path fill="#99D1F2" stroke="#010101" stroke-width="3" stroke-miterlimit="10" d="M1981.56,1276.409
					c-0.315,0-0.63-0.102-0.892-0.307l-131.754-103.34c-0.35-0.274-0.553-0.693-0.553-1.138c0-0.444,0.204-0.863,0.553-1.137
					l131.756-103.341c0.263-0.205,0.578-0.308,0.893-0.308s0.631,0.102,0.893,0.308l131.754,103.339
					c0.351,0.272,0.554,0.693,0.554,1.137s-0.203,0.862-0.554,1.138l-131.758,103.342
					C1982.189,1276.308,1981.875,1276.409,1981.56,1276.409z"/>
				<path fill="#010101" d="M1981.562,1068.284l131.755,103.339l-131.757,103.341l-131.754-103.339L1981.562,1068.284
					 M1981.562,1065.394c-0.63,0-1.261,0.205-1.784,0.617l-131.757,103.341c-0.698,0.547-1.106,1.386-1.106,2.273
					c0,0.888,0.408,1.728,1.106,2.272l131.755,103.341c0.523,0.411,1.154,0.616,1.784,0.616s1.261-0.205,1.784-0.616
					l131.757-103.341c0.698-0.549,1.104-1.388,1.104-2.274s-0.408-1.726-1.104-2.273l-131.755-103.339
					C1982.824,1065.6,1982.19,1065.394,1981.562,1065.394L1981.562,1065.394z"/>
			</g>
		</g>
		<g>
			<g>
				<path fill="#99D1F2" stroke="#010101" stroke-width="3" stroke-miterlimit="10" d="M1981.56,1255.786
					c-0.253,0-0.506-0.082-0.716-0.246l-105.823-83.001c-0.28-0.222-0.444-0.558-0.444-0.914s0.164-0.693,0.444-0.913
					l105.825-83.002c0.211-0.165,0.463-0.248,0.717-0.248c0.253,0,0.506,0.082,0.717,0.248l105.822,83
					c0.281,0.22,0.443,0.557,0.443,0.913c0,0.357-0.162,0.692-0.443,0.914l-105.824,83.003
					C1982.065,1255.704,1981.814,1255.786,1981.56,1255.786z"/>
				<path fill="#010101" d="M1981.562,1088.623l105.823,83l-105.825,83.002l-105.823-83L1981.562,1088.623 M1981.562,1086.302
					c-0.506,0-1.013,0.165-1.433,0.495l-105.825,83.002c-0.562,0.439-0.89,1.113-0.89,1.826s0.328,1.388,0.89,1.826l105.823,83.001
					c0.42,0.33,0.928,0.494,1.434,0.494s1.014-0.164,1.434-0.494l105.824-83.002c0.563-0.439,0.889-1.113,0.889-1.827
					c0-0.712-0.328-1.386-0.889-1.826l-105.824-83C1982.576,1086.467,1982.066,1086.302,1981.562,1086.302L1981.562,1086.302z"/>
			</g>
		</g>
	</g>
	<circle fill="#A5D178" stroke="#010101" stroke-width="3" stroke-miterlimit="10" cx="1986.995" cy="1578.166" r="33.662"/>
	<g>
		<path fill="#F58E81" stroke="#010101" stroke-width="3" stroke-miterlimit="10" d="M2020.657,1935.075
			c0,18.592-15.07,33.662-33.661,33.662c-18.593,0-33.662-15.07-33.662-33.662c0-18.588,15.069-33.658,33.662-33.658
			C2005.587,1901.417,2020.657,1916.487,2020.657,1935.075z"/>
		<path fill="#231F20" d="M2006.13,1935.738c0,10.569-8.568,19.136-19.134,19.136c-10.567,0-19.136-8.566-19.136-19.136
			c0-10.565,8.566-19.133,19.136-19.133C1997.562,1916.605,2006.13,1925.173,2006.13,1935.738z"/>
	</g>
	<g>
		<g>
			<path fill="#F9DC60" stroke="#010101" stroke-width="3" stroke-miterlimit="10" d="M1981.559,2341.797
				c-0.079,0-0.156-0.025-0.223-0.076l-32.939-25.835c-0.087-0.068-0.139-0.174-0.139-0.284c0-0.111,0.052-0.216,0.139-0.284
				l32.939-25.836c0.064-0.051,0.145-0.077,0.223-0.077s0.156,0.025,0.223,0.077l32.938,25.835c0.088,0.068,0.14,0.174,0.14,0.284
				c0,0.111-0.052,0.216-0.14,0.284l-32.938,25.836C1981.717,2341.772,1981.638,2341.797,1981.559,2341.797z"/>
			<path fill="#010101" d="M1981.559,2289.766l32.939,25.835l-32.939,25.835l-32.938-25.834L1981.559,2289.766 M1981.559,2289.043
				c-0.156,0-0.314,0.052-0.445,0.154l-32.939,25.836c-0.174,0.137-0.276,0.347-0.276,0.568s0.103,0.432,0.276,0.566l32.939,25.837
				c0.131,0.103,0.289,0.153,0.445,0.153c0.158,0,0.314-0.052,0.445-0.153l32.939-25.837c0.176-0.136,0.276-0.347,0.276-0.567
				s-0.103-0.432-0.276-0.568l-32.939-25.835C1981.875,2289.095,1981.717,2289.043,1981.559,2289.043L1981.559,2289.043z"/>
		</g>
	</g>
	<g id="Layer_6">
		<g>
			<g>
				<path fill="#99D1F2" d="M1851.151,2797.117c-3.164,0-5.738-2.758-5.738-6.146v-197.217c0-3.39,2.574-6.147,5.738-6.147h232.609
					c0.396,0,0.779,0.158,1.061,0.439l32.442,32.443c0.28,0.281,0.438,0.663,0.438,1.061v169.421c0,3.39-2.576,6.146-5.742,6.146
					H1851.151z"/>
				<path fill="#010101" d="M2083.761,2589.106l32.441,32.443v169.421c0,2.567-1.898,4.646-4.242,4.646h-260.809
					c-2.34,0-4.238-2.079-4.238-4.646v-197.217c0-2.566,1.898-4.647,4.238-4.647H2083.761 M2083.761,2586.106h-232.609
					c-3.992,0-7.238,3.43-7.238,7.647v197.217c0,4.217,3.248,7.646,7.238,7.646h260.811c3.992,0,7.242-3.431,7.242-7.646v-169.422
					c0-0.795-0.316-1.559-0.879-2.121l-32.442-32.443C2085.319,2586.422,2084.557,2586.106,2083.761,2586.106L2083.761,2586.106z"/>
			</g>
			<g>
				<path fill="#FFFFFF" d="M2088.003,2623.045c-3.166,0-5.742-2.757-5.742-6.146v-27.793c0-0.606,0.365-1.154,0.926-1.386
					c0.186-0.077,0.381-0.114,0.574-0.114c0.391,0,0.773,0.152,1.061,0.439l32.442,32.439c0.429,0.429,0.558,1.074,0.325,1.635
					c-0.232,0.561-0.779,0.926-1.387,0.926H2088.003z"/>
				<path fill="#010101" d="M2083.761,2589.106l32.441,32.439h-28.199c-2.344,0-4.242-2.08-4.242-4.646V2589.106 M2083.76,2586.106
					c-0.386,0-0.776,0.075-1.147,0.229c-1.121,0.464-1.852,1.558-1.852,2.771v27.792c0,4.216,3.249,7.646,7.242,7.646h28.199
					c1.215,0,2.309-0.731,2.771-1.852c0.465-1.121,0.208-2.412-0.65-3.27l-32.441-32.439
					C2085.308,2586.41,2084.54,2586.106,2083.76,2586.106L2083.76,2586.106z"/>
			</g>
		</g>
	</g>
	<g>
		<path fill="#A5D178" stroke="#010101" stroke-width="3" stroke-miterlimit="10" d="M2116.202,3142.849
			c0,2.41-1.623,4.362-3.629,4.362h-223.012c-2.002,0-3.625-1.952-3.625-4.362v-185.143c0-2.41,1.624-4.361,3.625-4.361h223.014
			c2.004,0,3.629,1.951,3.629,4.361v185.143H2116.202z"/>
		<path fill="#A5D178" stroke="#010101" stroke-width="3" stroke-miterlimit="10" d="M1924.958,3029.366
			c0,2.502-2.028,4.531-4.531,4.531h-68.982c-2.504,0-4.533-2.029-4.533-4.531v-35.736c0-2.501,2.029-4.531,4.533-4.531h68.981
			c2.503,0,4.532,2.029,4.532,4.531V3029.366L1924.958,3029.366z"/>
		<path fill="#A5D178" stroke="#010101" stroke-width="3" stroke-miterlimit="10" d="M1924.958,3115.262
			c0,2.502-2.028,4.532-4.531,4.532h-68.982c-2.504,0-4.533-2.03-4.533-4.532v-35.736c0-2.5,2.029-4.53,4.533-4.53h68.981
			c2.503,0,4.532,2.03,4.532,4.53V3115.262L1924.958,3115.262z"/>
	</g>
	<g>
		<path fill="#5CBAA7" d="M1852.351,3444.192c-0.828,0-1.5-0.672-1.5-1.5v-86.967c0-0.83,0.672-1.5,1.5-1.5h198.768
			c0.277,0,0.551,0.076,0.787,0.223l70.525,43.482c0.442,0.273,0.713,0.756,0.713,1.277s-0.271,1.004-0.713,1.275l-70.525,43.484
			c-0.236,0.146-0.51,0.225-0.787,0.225H1852.351z"/>
		<g>
			<path fill="#010101" d="M2051.118,3355.726l70.525,43.482l-70.525,43.484h-198.768v-86.967H2051.118 M2051.118,3352.726h-198.768
				c-1.656,0-3,1.342-3,3v86.967c0,1.658,1.344,3,3,3h198.768c0.557,0,1.102-0.153,1.574-0.445l70.525-43.484
				c0.887-0.546,1.426-1.513,1.426-2.554s-0.539-2.007-1.426-2.554l-70.525-43.483
				C2052.22,3352.879,2051.675,3352.726,2051.118,3352.726L2051.118,3352.726z"/>
		</g>
	</g>
	<g>
		<path fill="#99D1F2" d="M1852.346,3836.831c-0.828,0-1.5-0.672-1.5-1.5v-86.967c0-0.83,0.672-1.5,1.5-1.5h269.293
			c0.67,0,1.26,0.444,1.442,1.09c0.183,0.646-0.085,1.334-0.655,1.687l-68.455,42.204l68.455,42.21
			c0.57,0.353,0.838,1.04,0.655,1.687c-0.185,0.646-0.772,1.09-1.442,1.09H1852.346L1852.346,3836.831z"/>
		<path fill="#010101" d="M2121.639,3748.364h0.004 M2121.639,3748.364l-70.525,43.48l70.525,43.486h-70.525h-128.242h-70.525
			v-86.967h70.524h128.242H2121.639 M2121.643,3745.364h-0.004h-70.525h-128.242h-70.525c-1.656,0-3,1.342-3,3v86.967
			c0,1.658,1.344,3,3,3h70.524h128.242h70.524c1.342,0,2.521-0.891,2.887-2.182s-0.17-2.668-1.313-3.371l-66.384-40.934
			l66.324-40.891c0.89-0.521,1.487-1.486,1.487-2.59C2124.641,3746.706,2123.301,3745.364,2121.643,3745.364L2121.643,3745.364z"/>
	</g>
</g>
<g id="Flowchart">
	<g>
		<path fill="#99D1F2" stroke="#010101" stroke-width="3" stroke-miterlimit="10" d="M416.96,3701.051H185.986
			c-2.074,0-4.08,1.83-4.48,4.086l-30.689,173.42c-0.4,2.26,0.946,4.088,3.006,4.088H383.16c2.06,0,4.074-1.828,4.494-4.088
			l32.307-173.42C420.378,3702.881,419.035,3701.051,416.96,3701.051z"/>
	</g>
	<g>
		<path fill="#5CBAA7" stroke="#010101" stroke-width="3" stroke-miterlimit="10" d="M985.462,353.949h-269.24l0.037,157.9
			c0,10.143,51.217,24.289,134.617,24.289c83.406,0,134.621-14.146,134.621-24.289L985.462,353.949z"/>
		<line fill="none" x1="716.247" y1="511.849" x2="985.513" y2="511.849"/>
		<g>
			<g>
				<path fill="#5CBAA7" d="M850.88,379.74c-81.432,0-136.133-13.334-136.133-25.789s54.701-25.791,136.133-25.791
					s136.135,13.336,136.135,25.791C987.013,366.406,932.312,379.74,850.88,379.74z"/>
				<path fill="#010101" d="M850.88,329.66c83.412,0,134.635,14.146,134.635,24.291S934.292,378.24,850.88,378.24
					c-83.414,0-134.633-14.145-134.633-24.289S767.466,329.66,850.88,329.66 M850.88,326.66c-37.771,0-73.002,2.984-99.205,8.404
					c-11.41,2.359-20.869,5.152-27.355,8.078c-7.451,3.358-11.072,6.895-11.072,10.809s3.621,7.451,11.072,10.811
					c6.486,2.924,15.945,5.717,27.355,8.076c26.203,5.419,61.436,8.402,99.205,8.402s73.002-2.983,99.205-8.402
					c11.41-2.359,20.869-5.152,27.355-8.076c7.451-3.359,11.072-6.896,11.072-10.811s-3.621-7.45-11.072-10.811
					c-6.486-2.925-15.945-5.718-27.355-8.078C923.882,329.644,888.649,326.66,850.88,326.66L850.88,326.66z"/>
			</g>
		</g>
	</g>
	<path fill="#A5D178" stroke="#010101" stroke-width="3" stroke-miterlimit="10" d="M415.792,2191.47H154.984
		c-2.34,0-4.238,2.079-4.238,4.647v36.586v117.165v36.587c0,33.392,86.027,67.156,127.195,15.753
		c20.67-22.135,89.701-81.921,142.096-17.456v-36.587v-115.462v-36.586C420.037,2193.548,418.136,2191.47,415.792,2191.47z"/>
	<g>
		<path fill="#F9DC60" stroke="#010101" stroke-width="3" stroke-miterlimit="10" d="M378.366,2563.354H154.388
			c-2.013,0-3.644,1.785-3.644,3.99v31.42v100.62v31.42c0,28.678,73.881,57.675,109.233,13.528
			c17.753-19.009,77.036-70.354,122.028-14.991v-31.42v-99.157v-31.42C382.006,2565.139,380.377,2563.354,378.366,2563.354z"/>
		<path fill="#F9DC60" stroke="#010101" stroke-width="3" stroke-miterlimit="10" d="M397.377,2585.293H173.401
			c-2.011,0-3.643,1.783-3.643,3.99v31.42v100.62v31.421c0,28.675,73.882,57.672,109.234,13.528
			c17.752-19.01,77.035-70.354,122.031-14.992v-31.421v-99.156v-31.42C401.024,2587.076,399.393,2585.293,397.377,2585.293z"/>
		<path fill="#F9DC60" stroke="#010101" stroke-width="3" stroke-miterlimit="10" d="M416.395,2607.464H192.413
			c-2.008,0-3.639,1.785-3.639,3.99v31.42v100.618v31.421c0,28.676,73.879,57.676,109.232,13.531
			c17.752-19.014,77.035-70.354,122.029-14.994v-31.42v-99.156v-31.42C420.036,2609.248,418.407,2607.464,416.395,2607.464z"/>
	</g>
	<g>
		<path fill="#A5D178" stroke="#010101" stroke-width="3" stroke-miterlimit="10" d="M953.017,703.618v207.457l-205.936-0.027
			c-13.227,0-31.678-39.464-31.678-103.727c0-64.27,18.451-103.731,31.678-103.731L953.017,703.618z"/>
		<line fill="none" x1="747.082" y1="911.056" x2="747.082" y2="703.576"/>
		<g>
			<g>
				<path fill="#A5D178" d="M953.015,912.556c-15.691,0-33.178-43.22-33.178-105.237c0-62.021,17.484-105.242,33.178-105.242
					c15.694,0,33.182,43.221,33.182,105.242C986.197,869.337,968.709,912.556,953.015,912.556z"/>
				<path fill="#010101" d="M953.015,703.576c13.23,0,31.682,39.47,31.682,103.742c0,64.271-18.451,103.737-31.682,103.737
					c-13.229,0-31.678-39.467-31.678-103.737C921.337,743.046,939.787,703.576,953.015,703.576 M953.015,700.576
					c-8.395,0-17.007,10.854-23.631,29.778c-7.124,20.352-11.047,47.685-11.047,76.964c0,29.278,3.923,56.61,11.047,76.962
					c6.624,18.923,15.236,29.775,23.631,29.775s17.01-10.854,23.635-29.775c7.123-20.352,11.047-47.684,11.047-76.962
					c0-29.28-3.924-56.613-11.047-76.964C970.025,711.429,961.41,700.576,953.015,700.576L953.015,700.576z"/>
			</g>
		</g>
	</g>
	<g>
		<path fill="#99D1F2" stroke="#010101" stroke-width="3" stroke-miterlimit="10" d="M986.196,1260.515
			c0,2.568-1.898,4.646-4.242,4.646H721.174c-2.34,0-4.238-2.078-4.238-4.646v-197.192c0-2.567,1.898-4.646,4.238-4.646h260.779
			c2.342,0,4.241,2.079,4.241,4.646L986.196,1260.515L986.196,1260.515z"/>
		<line fill="none" stroke="#010101" stroke-width="3" stroke-miterlimit="10" x1="749.4" y1="1058.676" x2="749.4" y2="1265.163"/>
		
			<line fill="none" stroke="#010101" stroke-width="3" stroke-miterlimit="10" x1="716.905" y1="1095.65" x2="986.184" y2="1095.65"/>
	</g>
	<path fill="#F9DC60" stroke="#010101" stroke-width="3" stroke-miterlimit="10" d="M985.53,1492.074v-9.09v-22.865
		c0-20.867-86.027-41.967-127.193-9.843c-20.674,13.833-89.704,51.194-142.098,10.908v22.864v72.155v22.862
		c0,0.003,0.002,0.007,0.002,0.012v9.09v22.864c0,20.866,86.029,41.968,127.193,9.844c20.674-13.833,89.703-51.192,142.096-10.909
		v-22.863v-72.153v-22.864C985.53,1492.082,985.53,1492.079,985.53,1492.074z"/>
	<g>
		<path fill="#F58E81" d="M981.934,1828.857H721.125c-2.34,0-3.813,2.079-3.287,4.647l40.414,197.215
			c0.525,2.568,2.281,4.647,3.918,4.647h182.566c1.641,0,3.357-2.079,3.837-4.647l36.739-197.216
			C985.791,1830.936,984.277,1828.857,981.934,1828.857z"/>
		<path fill="none" stroke="#010101" stroke-width="3" stroke-miterlimit="10" d="M981.934,1828.857H721.125
			c-2.34,0-3.813,2.079-3.287,4.647l40.414,197.215c0.525,2.568,2.281,4.647,3.918,4.647h182.566c1.641,0,3.357-2.079,3.837-4.647
			l36.739-197.216C985.791,1830.936,984.277,1828.857,981.934,1828.857z"/>
	</g>
	<g>
		<path fill="#5CBAA7" d="M420.036,3131.633c0,2.568-1.9,4.647-4.244,4.647H154.983c-2.34,0-4.238-1.481-4.238-3.313v-140.678
			c0-1.832,1.898-3.697,4.238-4.17l260.809-57.339c2.345-0.558,4.244,1.068,4.244,3.638V3131.633L420.036,3131.633z"/>
		<path fill="none" stroke="#010101" stroke-width="3" stroke-miterlimit="10" d="M420.036,3131.633c0,2.568-1.9,4.647-4.244,4.647
			H154.983c-2.34,0-4.238-1.481-4.238-3.313v-140.678c0-1.832,1.898-3.697,4.238-4.17l260.809-57.339
			c2.345-0.558,4.244,1.068,4.244,3.638V3131.633L420.036,3131.633z"/>
	</g>
	<polygon fill="#99D1F2" stroke="#010101" stroke-width="3" stroke-miterlimit="10" points="218.067,3503.508 150.745,3399.199 
		218.067,3294.889 352.714,3294.889 420.036,3399.199 352.714,3503.508 	"/>
	<g>
		<path fill="#99D1F2" stroke="#010101" stroke-width="3" stroke-miterlimit="10" d="M420.037,2030.72
			c0,2.568-1.899,4.647-4.244,4.647H154.984c-2.34,0-4.238-2.079-4.238-4.647v-197.217c0-2.568,1.898-4.647,4.238-4.647h260.809
			c2.345,0,4.244,2.079,4.244,4.647V2030.72z"/>
		
			<line fill="none" stroke="#010101" stroke-width="3" stroke-miterlimit="10" x1="169.224" y1="1828.856" x2="169.224" y2="2035.368"/>
		
			<line fill="none" stroke="#010101" stroke-width="3" stroke-miterlimit="10" x1="403.119" y1="1828.856" x2="403.119" y2="2035.368"/>
	</g>
	<path fill="#99D1F2" stroke="#010101" stroke-width="3" stroke-miterlimit="10" d="M883.299,2191.813
		c-0.529,0-1.055,0.031-1.584,0.04c-0.317-0.244-0.67-0.383-1.039-0.383H719.541c-1.445,0-2.619,2.081-2.619,4.647v197.215
		c0,2.567,1.174,4.646,2.619,4.646h161.135c0.369,0,0.722-0.138,1.039-0.383c0.529,0.009,1.055,0.04,1.584,0.04
		c56.838,0,102.912-46.075,102.912-102.912S940.137,2191.813,883.299,2191.813z"/>
	<g>
		<g>
			<path fill="#99D1F2" d="M284.651,1266.705c-0.315,0-0.63-0.102-0.892-0.307l-131.754-103.34c-0.35-0.274-0.553-0.693-0.553-1.138
				c0-0.444,0.204-0.863,0.553-1.137l131.756-103.341c0.263-0.205,0.578-0.308,0.893-0.308s0.631,0.102,0.893,0.308L417.3,1160.782
				c0.351,0.272,0.554,0.693,0.554,1.137s-0.203,0.862-0.554,1.138l-131.758,103.342
				C285.281,1266.603,284.966,1266.705,284.651,1266.705z"/>
			<path fill="#010101" d="M284.653,1058.58l131.755,103.339l-131.757,103.341L152.897,1161.92L284.653,1058.58 M284.653,1055.689
				c-0.63,0-1.261,0.205-1.784,0.617l-131.757,103.341c-0.698,0.547-1.106,1.386-1.106,2.273c0,0.888,0.408,1.728,1.106,2.272
				l131.755,103.341c0.523,0.411,1.154,0.616,1.784,0.616s1.261-0.205,1.784-0.616l131.757-103.341
				c0.698-0.549,1.104-1.388,1.104-2.274s-0.408-1.726-1.104-2.273l-131.755-103.339
				C285.916,1055.896,285.282,1055.689,284.653,1055.689L284.653,1055.689z"/>
		</g>
	</g>
	<path fill="#F58E81" stroke="#010101" stroke-width="3" stroke-miterlimit="10" d="M420.036,1578.167
		c0,23.521-16.635,42.589-37.158,42.589H187.903c-20.521,0-37.158-19.068-37.158-42.589l0,0c0-23.523,16.635-42.592,37.158-42.592
		h194.975C403.401,1535.575,420.036,1554.644,420.036,1578.167L420.036,1578.167z"/>
	<path fill="#A6D178" stroke="#020202" stroke-width="3" stroke-miterlimit="10" d="M418.556,905.923
		c0,2.568-1.898,4.647-4.242,4.647H153.503c-2.34,0-4.238-2.079-4.238-4.647V708.708c0-2.568,1.898-4.647,4.238-4.647h260.811
		c2.344,0,4.242,2.079,4.242,4.647V905.923z"/>
	<path fill="#A5D178" stroke="#010101" stroke-width="3" stroke-miterlimit="10" d="M986.207,2788.126
		c-14.99,0-35.901-38.434-35.901-101.015c0-61.881,20.438-100.126,35.39-100.979l-232.873-0.026
		c-14.992,0-35.901,38.426-35.901,101.007c0,62.576,20.909,101.003,35.901,101.003l233.391,0.025v-0.018
		C986.208,2788.126,986.208,2788.126,986.207,2788.126z"/>
	<g>
		<path fill="#99D1F2" d="M851.565,3168.386c-0.536,0-1.031-0.285-1.299-0.75l-134.645-233.215c-0.269-0.465-0.269-1.037,0-1.5
			c0.268-0.465,0.762-0.75,1.299-0.75h269.291c0.535,0,1.031,0.285,1.299,0.75c0.269,0.463,0.269,1.035,0,1.5l-134.646,233.215
			C852.596,3168.101,852.101,3168.386,851.565,3168.386z"/>
		<path fill="#010101" d="M986.209,2933.671h0.006 M986.209,2933.671l-134.645,233.215l-134.646-233.215H986.209 M986.215,2930.671
			h-0.006H716.918c-1.072,0-2.062,0.571-2.598,1.5c-0.535,0.928-0.535,2.071,0,3l134.646,233.215c0.535,0.929,1.525,1.5,2.598,1.5
			s2.063-0.571,2.598-1.5l134.592-233.123c0.291-0.461,0.459-1.008,0.459-1.592C989.213,2932.013,987.874,2930.671,986.215,2930.671
			L986.215,2930.671z"/>
	</g>
	<circle fill="#F9DC60" stroke="#010101" stroke-width="3" stroke-miterlimit="10" cx="851.566" cy="3399.198" r="67.323"/>
	<g>
		<circle fill="#99D1F2" stroke="#010101" stroke-width="3" stroke-miterlimit="10" cx="851.566" cy="3791.848" r="67.323"/>
		
			<line fill="none" stroke="#010101" stroke-width="3" stroke-miterlimit="10" x1="851.566" y1="3724.524" x2="851.566" y2="3859.171"/>
		
			<line fill="none" stroke="#010101" stroke-width="3" stroke-miterlimit="10" x1="784.244" y1="3791.848" x2="918.889" y2="3791.848"/>
	</g>
	<g>
		<circle fill="#F58E81" stroke="#010101" stroke-width="3" stroke-miterlimit="10" cx="1415.917" cy="445.043" r="67.323"/>
		
			<line fill="none" stroke="#010101" stroke-width="3" stroke-miterlimit="10" x1="1368.312" y1="397.438" x2="1463.522" y2="492.647"/>
		
			<line fill="none" stroke="#010101" stroke-width="3" stroke-miterlimit="10" x1="1368.312" y1="492.647" x2="1463.522" y2="397.438"/>
	</g>
	
		<path fill="#99D1F2" stroke="#010101" stroke-width="3" stroke-linecap="round" stroke-linejoin="round" stroke-miterlimit="10" d="
		M1508.475,704.05l-148.096,0.013v0.945c-1.46,0.467-2.839,1.44-3.982,2.907l-70.545,90.477c-1.777,2.28-2.787,5.474-2.787,8.818
		c0,3.345,1.009,6.539,2.787,8.818l70.543,90.475c1.144,1.467,2.523,2.439,3.983,2.906v1.172l148.095-0.014
		c18.326,0,43.883-39.285,43.883-103.258C1552.355,743.333,1526.799,704.05,1508.475,704.05z"/>
	
		<path fill="#A5D178" stroke="#010101" stroke-width="3" stroke-linecap="round" stroke-linejoin="round" stroke-miterlimit="10" d="
		M1552.301,1058.676h-269.189c-0.006,0.168-0.043,0.338-0.043,0.504l0.018,148.084h1.23c0.609,1.459,1.879,2.838,3.791,3.982
		l117.971,70.538c2.976,1.778,7.14,2.787,11.498,2.787c4.363,0,8.527-1.009,11.498-2.787l117.968-70.538
		c1.911-1.143,3.183-2.523,3.792-3.982h1.525l-0.017-148.083C1552.344,1059.014,1552.309,1058.844,1552.301,1058.676z"/>
	<g>
		<g>
			<path fill="#5CBAA7" d="M1550.475,1634.177c0,2.567-1.883,4.646-4.203,4.646h-258.26c-2.316,0-4.197-2.079-4.197-4.646v-197.206
				c0-2.568,1.881-4.646,4.197-4.646h258.26c2.32,0,4.203,2.079,4.203,4.646V1634.177z"/>
			<path fill="#010101" d="M1546.271,1640.325h-258.26c-3.142,0-5.697-2.757-5.697-6.146v-197.208c0-3.389,2.557-6.146,5.697-6.146
				h258.26c3.146,0,5.703,2.757,5.703,6.146v197.208C1551.975,1637.568,1549.416,1640.325,1546.271,1640.325z M1288.012,1433.825
				c-1.486,0-2.697,1.412-2.697,3.146v197.207c0,1.735,1.211,3.146,2.697,3.146h258.26c1.49,0,2.703-1.411,2.703-3.146v-197.206
				c0-1.735-1.213-3.146-2.703-3.146L1288.012,1433.825L1288.012,1433.825z"/>
		</g>
		<path fill="#5CBAA7" d="M1548.904,1430.825h-239.137v209.5h239.137c2.32,0,4.201-2.108,4.201-4.713v-200.073
			C1553.105,1432.935,1551.225,1430.825,1548.904,1430.825z"/>
	</g>
	<g>
		<path fill="#010101" d="M1460.928,1927.806c-7.59-0.608-14.02-3.78-19.063-9.424c-5.008-5.606-7.547-12.554-7.547-20.652v-66.527
			c0-10.899-3.752-19.793-11.475-27.193c-5.453-5.347-12.221-7.94-20.7-7.94c-1.548,0-2.756,0.271-3.229,0.729
			c-0.489,0.469-0.67,0.927-0.67,1.695c0,0.729,0.191,1.246,0.679,1.787c0.356,0.148,1.571,0.572,4.46,0.842
			c7.371,0.604,13.648,3.747,18.639,9.338c4.945,5.548,7.452,12.526,7.452,20.743v66.526c0,6.735,1.226,12.493,3.642,17.116
			c1.74,3.48,5.447,7.339,11.026,11.496l4.071,3.034l1.671,1.246l-1.671,1.244l-4.071,3.037c-5.597,4.172-9.485,8.341-11.56,12.386
			c-2.063,4.016-3.108,9.536-3.108,16.414v66.344c0,8.063-2.458,14.99-7.31,20.59c-4.908,5.66-11.217,8.914-18.748,9.67
			c-3.088,0.289-4.356,0.75-4.731,0.918c-0.271,0.345-0.44,0.771-0.44,1.531c0,1.144,0.344,1.565,0.666,1.873
			c0.478,0.461,1.688,0.733,3.234,0.733c8.788,0,16.174-3.239,22.574-9.907c6.461-6.73,9.602-14.98,9.602-25.226v-66.526
			c0-8.082,2.5-15.019,7.428-20.619c4.982-5.662,11.453-8.845,19.234-9.461c3.059-0.351,3.879-1.099,3.911-1.129
			c0.39-0.378,0.472-1.228,0.472-1.869c0-1.229-0.352-1.568-0.483-1.695C1464.855,1928.905,1464.037,1928.158,1460.928,1927.806z"/>
	</g>
	<g>
		<g>
			
				<line fill="none" stroke="#010101" stroke-width="3" stroke-miterlimit="10" x1="1261.432" y1="2315.6" x2="1521.77" y2="2315.6"/>
			<g>
				<polygon fill="#010101" points="1517.557,2321.155 1519.917,2315.6 1517.557,2310.045 1530.725,2315.6 				"/>
			</g>
		</g>
	</g>
</g>
<g id="Layer_13">
	<rect x="4.617" y="937.951" fill="none" width="561.547" height="57.594"/>
	<text transform="matrix(1 0 0 1 201.3916 975.1982)" font-family="'Ubuntu-Regular'" font-size="48">Process</text>
	<rect x="4.617" y="1305.381" fill="none" width="560.067" height="75.694"/>
	<text transform="matrix(1 0 0 1 192.1802 1342.6284)" font-family="'Ubuntu-Regular'" font-size="48">Decision</text>
	<rect x="3.877" y="1676.211" fill="none" width="560.067" height="56.935"/>
	<text transform="matrix(1 0 0 1 161.561 1713.4585)" font-family="'Ubuntu-Regular'" font-size="48">Terminator</text>
	<rect x="5.357" y="2062.199" fill="none" width="560.067" height="56.935"/>
	<text transform="matrix(1 0 0 1 74.2671 2099.4463)" font-family="'Ubuntu-Regular'" font-size="48">Predefined Process</text>
	<rect x="5.357" y="2437.168" fill="none" width="560.067" height="56.935"/>
	<text transform="matrix(1 0 0 1 171.6802 2474.415)" font-family="'Ubuntu-Regular'" font-size="48">Document</text>
	<rect x="5.357" y="2822.818" fill="none" width="560.067" height="56.935"/>
	<text transform="matrix(1 0 0 1 64.3779 2860.0654)" font-family="'Ubuntu-Regular'" font-size="48">Multiple Documents</text>
	<rect x="5.357" y="3189.912" fill="none" width="560.067" height="56.935"/>
	<text transform="matrix(1 0 0 1 141.9937 3227.1592)" font-family="'Ubuntu-Regular'" font-size="48">Manual Input</text>
	<rect x="5.357" y="3564.915" fill="none" width="560.067" height="56.935"/>
	<text transform="matrix(1 0 0 1 155.1216 3602.1621)" font-family="'Ubuntu-Regular'" font-size="48">Preperation</text>
	<rect x="5.357" y="3933.263" fill="none" width="560.067" height="56.935"/>
	<text transform="matrix(1 0 0 1 233.5757 3970.5098)" font-family="'Ubuntu-Regular'" font-size="48">Data</text>
	<rect x="570.108" y="557.518" fill="none" width="561.547" height="57.594"/>
	<text transform="matrix(1 0 0 1 748.2837 594.7656)" font-family="'Ubuntu-Regular'" font-size="48">Database</text>
	<rect x="570.777" y="937.951" fill="none" width="561.547" height="57.594"/>
	<text transform="matrix(1 0 0 1 746.7441 975.1982)" font-family="'Ubuntu-Regular'" font-size="48">Hard Disk</text>
	<rect x="570.852" y="1305.381" fill="none" width="560.067" height="75.694"/>
	<text transform="matrix(1 0 0 1 674.2729 1342.6284)" font-family="'Ubuntu-Regular'" font-size="48">Internal Storage</text>
	<rect x="570.851" y="1676.211" fill="none" width="560.067" height="75.694"/>
	<text transform="matrix(1 0 0 1 727.7676 1713.459)" font-family="'Ubuntu-Regular'" font-size="48">Paper Tape</text>
	<rect x="570.85" y="2062.199" fill="none" width="560.067" height="75.694"/>
	<text transform="matrix(1 0 0 1 653.6074 2099.4468)" font-family="'Ubuntu-Regular'" font-size="48">Manual Operation</text>
	<rect x="571.533" y="2437.168" fill="none" width="560.067" height="75.694"/>
	<text transform="matrix(1 0 0 1 790.0313 2474.4155)" font-family="'Ubuntu-Regular'" font-size="48">Delay</text>
	<rect x="571.533" y="2813.438" fill="none" width="560.067" height="75.694"/>
	<text transform="matrix(1 0 0 1 720.8164 2850.686)" font-family="'Ubuntu-Regular'" font-size="48">Stored Data</text>
	<rect x="571.533" y="3180.532" fill="none" width="560.067" height="75.694"/>
	<text transform="matrix(1 0 0 1 780.6958 3217.7793)" font-family="'Ubuntu-Regular'" font-size="48">Merge</text>
	<rect x="571.533" y="3555.535" fill="none" width="560.067" height="75.694"/>
	<text transform="matrix(1 0 0 1 737.3281 3592.7832)" font-family="'Ubuntu-Regular'" font-size="48">Connector</text>
	<rect x="571.533" y="3933.263" fill="none" width="560.067" height="75.694"/>
	<text transform="matrix(1 0 0 1 823.6309 3970.5098)" font-family="'Ubuntu-Regular'" font-size="48">Or</text>
	<rect x="1135.144" y="557.519" fill="none" width="561.547" height="57.594"/>
	<text transform="matrix(1 0 0 1 1214.416 594.7661)" font-family="'Ubuntu-Regular'" font-size="48">Summing Junction</text>
	<rect x="1136.937" y="937.951" fill="none" width="561.547" height="57.594"/>
	<text transform="matrix(1 0 0 1 1338.6792 975.1982)" font-family="'Ubuntu-Regular'" font-size="48">Display</text>
	<rect x="1135.144" y="1314.431" fill="none" width="561.547" height="57.594"/>
	<text transform="matrix(1 0 0 1 1266.6636 1351.6782)" font-family="'Ubuntu-Regular'" font-size="48">Off-Page Link</text>
	<rect x="1136.94" y="1685.261" fill="none" width="561.547" height="57.594"/>
	<text transform="matrix(1 0 0 1 1363.0186 1722.5088)" font-family="'Ubuntu-Regular'" font-size="48">Note</text>
	<rect x="1136.94" y="2071.249" fill="none" width="561.547" height="57.594"/>
	<text transform="matrix(1 0 0 1 1310.5073 2108.4966)" font-family="'Ubuntu-Regular'" font-size="48">Comment</text>
	<rect x="1134.574" y="2436.838" fill="none" width="561.547" height="57.594"/>
	<text transform="matrix(1 0 0 1 1348.1001 2474.0854)" font-family="'Ubuntu-Regular'" font-size="48">Arrow</text>
	<rect x="1141.55" y="3180.532" fill="none" width="561.547" height="57.594"/>
	<text transform="matrix(1 0 0 1 1357.5488 3217.7793)" font-family="'Ubuntu-Regular'" font-size="48">Entity</text>
	<rect x="1134.574" y="3555.535" fill="none" width="561.547" height="57.594"/>
	<text transform="matrix(1 0 0 1 1284.2617 3592.7832)" font-family="'Ubuntu-Regular'" font-size="48">Weak Entity</text>
	<rect x="1134.574" y="3932.934" fill="none" width="561.547" height="57.594"/>
	<text transform="matrix(1 0 0 1 1313.8291 3970.1816)" font-family="'Ubuntu-Regular'" font-size="48">Attribute</text>
	<rect x="1700.787" y="557.519" fill="none" width="561.547" height="57.594"/>
	<text transform="matrix(1 0 0 1 1880.043 594.7661)" font-family="'Ubuntu-Regular'" font-size="48">Attribute</text>
	<rect x="1706.223" y="937.951" fill="none" width="561.547" height="57.594"/>
	<text transform="matrix(1 0 0 1 1851.1338 975.1987)" font-family="'Ubuntu-Regular'" font-size="48">Relationship</text>
	<rect x="1706.223" y="1305.381" fill="none" width="561.547" height="57.594"/>
	<text transform="matrix(1 0 0 1 1784.8242 1342.6284)" font-family="'Ubuntu-Regular'" font-size="48">Weak Relationship</text>
	<rect x="1706.223" y="1685.262" fill="none" width="561.547" height="57.594"/>
	<text transform="matrix(1 0 0 1 1933.1406 1722.5093)" font-family="'Ubuntu-Regular'" font-size="48">Start</text>
	<rect x="1706.223" y="2062.199" fill="none" width="561.547" height="57.594"/>
	<text transform="matrix(1 0 0 1 1945.3809 2099.4468)" font-family="'Ubuntu-Regular'" font-size="48">End</text>
	<rect x="1706.221" y="2436.838" fill="none" width="561.547" height="57.594"/>
	<text transform="matrix(1 0 0 1 1819.958 2474.0859)" font-family="'Ubuntu-Regular'" font-size="48">Branch / Merge</text>
	<rect x="1706.223" y="2822.489" fill="none" width="561.547" height="57.593"/>
	<text transform="matrix(1 0 0 1 1932.3008 2859.7363)" font-family="'Ubuntu-Regular'" font-size="48">Note</text>
	<rect x="1706.223" y="3180.533" fill="none" width="561.547" height="57.594"/>
	<text transform="matrix(1 0 0 1 1858.3828 3217.7813)" font-family="'Ubuntu-Regular'" font-size="48">Component</text>
	<rect x="1706.224" y="3555.536" fill="none" width="561.547" height="57.594"/>
	<text transform="matrix(1 0 0 1 1861.79 3592.7842)" font-family="'Ubuntu-Regular'" font-size="48">Send Signal</text>
	<rect x="1706.224" y="3928.325" fill="none" width="561.547" height="57.594"/>
	<text transform="matrix(1 0 0 1 1831.2617 3965.5732)" font-family="'Ubuntu-Regular'" font-size="48">Receive Signal</text>
	<rect x="2268.318" y="937.951" fill="none" width="561.547" height="57.594"/>
	<text transform="matrix(1 0 0 1 2387.6221 975.1987)" font-family="'Ubuntu-Regular'" font-size="48">External Entity</text>
	<rect x="2269.119" y="1305.381" fill="none" width="561.547" height="57.594"/>
	<text transform="matrix(1 0 0 1 2465.8926 1342.6284)" font-family="'Ubuntu-Regular'" font-size="48">Process</text>
	<rect x="2269.119" y="1685.261" fill="none" width="561.547" height="57.594"/>
	<text transform="matrix(1 0 0 1 2465.8926 1722.5088)" font-family="'Ubuntu-Regular'" font-size="48">Process</text>
	<rect x="2270.65" y="2062.199" fill="none" width="561.547" height="57.594"/>
	<text transform="matrix(1 0 0 1 2434.8096 2099.4468)" font-family="'Ubuntu-Regular'" font-size="48">Data Store</text>
	<rect x="2269.886" y="2436.839" fill="none" width="561.547" height="57.594"/>
	<text transform="matrix(1 0 0 1 2434.0449 2474.0864)" font-family="'Ubuntu-Regular'" font-size="48">Data Store</text>
	<rect x="2270.65" y="2822.489" fill="none" width="561.547" height="57.594"/>
	<text transform="matrix(1 0 0 1 2434.8096 2859.7373)" font-family="'Ubuntu-Regular'" font-size="48">Data Store</text>
	<rect x="2266.785" y="3555.537" fill="none" width="561.547" height="57.594"/>
	<text transform="matrix(1 0 0 1 2498.2393 3592.7852)" font-family="'Ubuntu-Regular'" font-size="48">Task</text>
	<rect x="2835.279" y="557.519" fill="none" width="561.547" height="57.594"/>
	<text transform="matrix(1 0 0 1 2994.0625 594.7661)" font-family="'Ubuntu-Regular'" font-size="48">Start Event</text>
	<rect x="2836.623" y="937.951" fill="none" width="561.547" height="57.594"/>
	<text transform="matrix(1 0 0 1 3054.8047 975.1982)" font-family="'Ubuntu-Regular'" font-size="48">Event</text>
	<rect x="2835.279" y="1305.381" fill="none" width="561.547" height="57.594"/>
	<text transform="matrix(1 0 0 1 3053.4609 1342.6289)" font-family="'Ubuntu-Regular'" font-size="48">Event</text>
	<rect x="2836.625" y="1685.261" fill="none" width="561.547" height="57.594"/>
	<text transform="matrix(1 0 0 1 3007.6475 1722.5088)" font-family="'Ubuntu-Regular'" font-size="48">End Event</text>
	<rect x="2836.625" y="2436.839" fill="none" width="561.547" height="57.594"/>
	<text transform="matrix(1 0 0 1 2977.9121 2474.0869)" font-family="'Ubuntu-Regular'" font-size="48">Entity Model</text>
	<rect x="5.357" y="53.989" fill="none" width="3391.469" height="179.113"/>
	<text transform="matrix(1 0 0 1 506.585 170.3872)" font-family="'Ubuntu-Bold'" font-size="150">Flow Chart, Process Map Symbols</text>
</g>
<g id="Titles">
	<rect x="-2.956" y="408.083" fill="none" width="573.733" height="178.233"/>
	<text transform="matrix(1 0 0 1 73.1978 476.3691)" font-family="'Ubuntu-Bold'" font-size="88">Flowchart</text>
	<rect x="1128.481" y="2677.449" fill="none" width="573.733" height="178.233"/>
	<text transform="matrix(1 0 0 1 1320.001 2745.7358)" font-family="'Ubuntu-Bold'" font-size="88">UML</text>
	<rect x="2262.225" y="408.083" fill="none" width="573.734" height="178.233"/>
	<text transform="matrix(1 0 0 1 2337.543 476.3691)" font-family="'Ubuntu-Bold'" font-size="88">Data Flow</text>
	<rect x="2262.226" y="3041.164" fill="none" width="573.734" height="178.232"/>
	<text transform="matrix(1 0 0 1 2418.458 3109.4512)" font-family="'Ubuntu-Bold'" font-size="88">BPMN</text>
	<rect x="2830.528" y="1891.645" fill="none" width="573.734" height="178.233"/>
	<text transform="matrix(1 0 0 1 3028.957 1959.9248)" font-family="'Ubuntu-Bold'" font-size="88">ERD</text>
</g>
</svg>
