<?xml version="1.0" encoding="utf-8"?>
<!-- Generator: Adobe Illustrator 15.1.0, SVG Export Plug-In . SVG Version: 6.00 Build 0)  -->
<!DOCTYPE svg PUBLIC "-//W3C//DTD SVG 1.1//EN" "http://www.w3.org/Graphics/SVG/1.1/DTD/svg11.dtd">
<svg version="1.1" id="Layer_6" xmlns="http://www.w3.org/2000/svg" xmlns:xlink="http://www.w3.org/1999/xlink" x="0px" y="0px"
	 width="283.46px" height="283.46px" viewBox="0 0 283.46 283.46" enable-background="new 0 0 283.46 283.46" xml:space="preserve">
<g>
	<g>
		<path fill="#F9DC5F" stroke="#000000" stroke-width="3" stroke-miterlimit="10" d="M141.73,167.926
			c-0.079,0-0.157-0.025-0.223-0.076l-32.939-25.835c-0.087-0.068-0.138-0.174-0.138-0.284c0-0.111,0.051-0.216,0.138-0.284
			l32.939-25.836c0.065-0.051,0.145-0.077,0.223-0.077s0.157,0.025,0.223,0.077l32.938,25.835c0.088,0.068,0.139,0.174,0.139,0.284
			c0,0.111-0.051,0.216-0.139,0.284l-32.939,25.836C141.888,167.901,141.809,167.926,141.73,167.926z"/>
		<path d="M141.73,115.895l32.939,25.835l-32.939,25.835l-32.938-25.834L141.73,115.895 M141.73,115.172
			c-0.157,0-0.315,0.052-0.446,0.154l-32.939,25.836c-0.174,0.137-0.276,0.347-0.276,0.568s0.102,0.432,0.276,0.567l32.939,25.836
			c0.131,0.103,0.289,0.153,0.446,0.153c0.158,0,0.315-0.051,0.446-0.153l32.939-25.836c0.175-0.137,0.276-0.347,0.276-0.568
			s-0.103-0.432-0.276-0.568l-32.939-25.835C142.046,115.224,141.888,115.172,141.73,115.172L141.73,115.172z"/>
	</g>
</g>
</svg>
