<?xml version="1.0" encoding="utf-8"?>
<!-- Generator: Adobe Illustrator 15.1.0, SVG Export Plug-In . SVG Version: 6.00 Build 0)  -->
<!DOCTYPE svg PUBLIC "-//W3C//DTD SVG 1.1//EN" "http://www.w3.org/Graphics/SVG/1.1/DTD/svg11.dtd">
<svg version="1.1" id="Layer_6" xmlns="http://www.w3.org/2000/svg" xmlns:xlink="http://www.w3.org/1999/xlink" x="0px" y="0px"
	 width="283.46px" height="283.46px" viewBox="0 0 283.46 283.46" enable-background="new 0 0 283.46 283.46" xml:space="preserve">
<g>
	<path fill="#F9DC5F" stroke="#000000" stroke-width="3" stroke-miterlimit="10" d="M234.705,17.845H10.727
		c-2.012,0-3.643,1.785-3.643,3.99v31.42v100.62v31.42c0,28.677,73.88,57.674,109.233,13.528
		c17.753-19.009,77.036-70.354,122.028-14.992v-31.419V53.255v-31.42C238.346,19.63,236.717,17.845,234.705,17.845z"/>
	<path fill="#F9DC5F" stroke="#000000" stroke-width="3" stroke-miterlimit="10" d="M253.717,39.784H29.74
		c-2.011,0-3.643,1.783-3.643,3.99v31.42v100.62v31.421c0,28.675,73.882,57.672,109.235,13.528
		c17.751-19.01,77.034-70.353,122.03-14.992V174.35V75.194v-31.42C257.363,41.567,255.732,39.784,253.717,39.784z"/>
	<path fill="#F9DC5F" stroke="#000000" stroke-width="3" stroke-miterlimit="10" d="M272.734,61.955H48.752
		c-2.009,0-3.639,1.785-3.639,3.99v31.42v100.618v31.421c0,28.676,73.879,57.675,109.233,13.531
		c17.751-19.013,77.034-70.354,122.028-14.994v-31.42V97.365v-31.42C276.375,63.739,274.745,61.955,272.734,61.955z"/>
</g>
</svg>
