<?xml version="1.0" encoding="utf-8"?>
<!-- Generator: Adobe Illustrator 15.1.0, SVG Export Plug-In . SVG Version: 6.00 Build 0)  -->
<!DOCTYPE svg PUBLIC "-//W3C//DTD SVG 1.1//EN" "http://www.w3.org/Graphics/SVG/1.1/DTD/svg11.dtd">
<svg version="1.1" id="Layer_6" xmlns="http://www.w3.org/2000/svg" xmlns:xlink="http://www.w3.org/1999/xlink" x="0px" y="0px"
	 width="283.46px" height="283.46px" viewBox="0 0 283.46 283.46" enable-background="new 0 0 283.46 283.46" xml:space="preserve">
<g>
	<g>
		<path fill="#5ABAA7" d="M274.457,240.709c0,2.567-1.883,4.646-4.203,4.646H11.994c-2.316,0-4.197-2.079-4.197-4.646V43.503
			c0-2.568,1.881-4.646,4.197-4.646h258.26c2.32,0,4.203,2.079,4.203,4.646V240.709z"/>
		<path d="M270.253,246.856H11.994c-3.142,0-5.697-2.757-5.697-6.146V43.503c0-3.389,2.556-6.146,5.697-6.146h258.26
			c3.145,0,5.703,2.757,5.703,6.146v197.207C275.957,244.099,273.398,246.856,270.253,246.856z M11.994,40.356
			c-1.487,0-2.697,1.412-2.697,3.146v197.207c0,1.735,1.21,3.146,2.697,3.146h258.26c1.49,0,2.703-1.411,2.703-3.146V43.503
			c0-1.735-1.213-3.146-2.703-3.146H11.994z"/>
	</g>
	<path fill="#5ABAA7" d="M272.886,37.356H33.749v209.5h239.137c2.32,0,4.201-2.109,4.201-4.713V42.07
		C277.087,39.466,275.207,37.356,272.886,37.356z"/>
</g>
</svg>
